<svg height="512" viewBox="0 0 64 64" width="512" xmlns="http://www.w3.org/2000/svg"><g id="woman-customer-marketing-seo-human"><circle cx="32" cy="32" fill="#2488ff" r="27"/><path d="m59 32a26.992 26.992 0 0 1 -47.98 16.98 26.989 26.989 0 0 0 37.96-37.96 26.894 26.894 0 0 1 10.02 20.98z" fill="#005ece"/><path d="m45 45v4a2.006 2.006 0 0 1 -2 2h-22a2.006 2.006 0 0 1 -2-2v-4a6.009 6.009 0 0 1 6-6h14a6 6 0 0 1 6 6z" fill="#ff6243"/><path d="m22 39.81v-16.81a10 10 0 0 1 20 0v17" fill="#c6c5ca"/><path d="m42 23v17l-4-.04v-16.96a10.021 10.021 0 0 0 -7.98-9.8 10 10 0 0 1 11.98 9.8z" fill="#898890"/><path d="m39 39-7 4-7-4 4-3v-3.81a5.961 5.961 0 0 0 6 0v3.81z" fill="#ffdaaa"/><path d="m38 21v6a5.985 5.985 0 0 1 -3 5.19 5.961 5.961 0 0 1 -6 0 5.985 5.985 0 0 1 -3-5.19v-6l4-2z" fill="#ffdaaa"/><path d="m35 32.19v3a5.961 5.961 0 0 1 -6 0v-3a5.961 5.961 0 0 0 6 0z" fill="#ffb655"/><path d="m38 21v6a6 6 0 0 1 -2.17 4.62 6.137 6.137 0 0 1 -3.83 1.38 6.164 6.164 0 0 1 -1.5-.19 6.006 6.006 0 0 0 1.5-.62 5.817 5.817 0 0 0 .83-.57 6 6 0 0 0 2.17-4.62v-6l-6-1.5 1-.5z" fill="#ffb655"/><path d="m59.97 31a27.858 27.858 0 0 0 -7.49-18.07l1.44-1.44-1.41-1.41-1.44 1.44a27.858 27.858 0 0 0 -18.07-7.49v-2.03h-2v2.03a27.858 27.858 0 0 0 -18.07 7.49l-1.44-1.44-1.41 1.41 1.44 1.44a27.858 27.858 0 0 0 -7.49 18.07h-2.03v2h2.03a27.858 27.858 0 0 0 7.49 18.07l-1.44 1.44 1.41 1.41 1.44-1.44a27.858 27.858 0 0 0 18.07 7.49v2.03h2v-2.03a27.858 27.858 0 0 0 18.07-7.49l1.44 1.44 1.41-1.41-1.44-1.44a27.858 27.858 0 0 0 7.49-18.07h2.03v-2zm-2 2a25.885 25.885 0 0 1 -6.9 16.65l-1.39-1.39-1.42 1.42 1.39 1.39a25.885 25.885 0 0 1 -16.65 6.9v-1.97h-2v1.97a25.885 25.885 0 0 1 -16.65-6.9l1.39-1.39-1.42-1.42-1.39 1.39a25.885 25.885 0 0 1 -6.9-16.65h1.97v-2h-1.97a25.885 25.885 0 0 1 6.9-16.65l1.39 1.39 1.42-1.42-1.39-1.39a25.885 25.885 0 0 1 16.65-6.9v1.97h2v-1.97a25.885 25.885 0 0 1 16.65 6.9l-1.39 1.39 1.42 1.42 1.39-1.39a25.885 25.885 0 0 1 6.9 16.65h-1.97v2z"/><path d="m43 39.26v-16.26a11 11 0 0 0 -22 0v16.26a7.01 7.01 0 0 0 -3 5.74v4a3.009 3.009 0 0 0 3 3h22a3.009 3.009 0 0 0 3-3v-4a7.01 7.01 0 0 0 -3-5.74zm-20-16.26a9 9 0 0 1 18 0v15.29a7.4 7.4 0 0 0 -1.64-.27l-3.36-2.52v-2.76a7.01 7.01 0 0 0 3-5.74v-6a1 1 0 0 0 -.76-.97l-8-2a.978.978 0 0 0 -.69.08l-4 2a.988.988 0 0 0 -.55.89v6a7.01 7.01 0 0 0 3 5.74v2.76l-3.36 2.52a7.4 7.4 0 0 0 -1.64.27zm6.6 13.8a1.014 1.014 0 0 0 .4-.8v-2.29a7.042 7.042 0 0 0 4 0v2.29a1.014 1.014 0 0 0 .4.8l2.78 2.09-5.18 2.96-5.18-2.96zm-2.6-9.8v-5.38l3.12-1.56 6.88 1.72v5.22a5 5 0 0 1 -10 0zm17 22a1 1 0 0 1 -1 1h-22a1 1 0 0 1 -1-1v-4a5.005 5.005 0 0 1 4.75-4.99l6.75 3.86a1.044 1.044 0 0 0 1 0l6.75-3.86a5.005 5.005 0 0 1 4.75 4.99z"/><path d="m29 23h2v2h-2z"/><path d="m33 23h2v2h-2z"/></g></svg>